<svg width="20" height="20" viewBox="0 0 20 20" fill="none" xmlns="http://www.w3.org/2000/svg">
<g clip-path="url(#clip0_18_1475)">
<path fill-rule="evenodd" clip-rule="evenodd" d="M10.0007 6.66667C9.1166 6.66667 8.26875 7.01785 7.64363 7.64298C7.01851 8.2681 6.66732 9.11594 6.66732 10C6.66732 10.8841 7.01851 11.7319 7.64363 12.357C8.26875 12.9821 9.1166 13.3333 10.0007 13.3333C10.8847 13.3333 11.7326 12.9821 12.3577 12.357C12.9828 11.7319 13.334 10.8841 13.334 10C13.334 9.11594 12.9828 8.2681 12.3577 7.64298C11.7326 7.01785 10.8847 6.66667 10.0007 6.66667ZM8.82214 8.82149C9.1347 8.50893 9.55862 8.33333 10.0007 8.33333C10.4427 8.33333 10.8666 8.50893 11.1792 8.82149C11.4917 9.13405 11.6673 9.55797 11.6673 10C11.6673 10.442 11.4917 10.8659 11.1792 11.1785C10.8666 11.4911 10.4427 11.6667 10.0007 11.6667C9.55862 11.6667 9.1347 11.4911 8.82214 11.1785C8.50958 10.8659 8.33398 10.442 8.33398 10C8.33398 9.55797 8.50958 9.13405 8.82214 8.82149Z" fill="#F3F3F3"/>
<path fill-rule="evenodd" clip-rule="evenodd" d="M9.15148 0.833332C8.77294 0.833332 8.44196 1.08847 8.3456 1.45454L7.9233 3.05887L6.5816 3.62446L5.55456 2.71073C5.2248 2.41736 4.72349 2.43198 4.4114 2.74408L2.74473 4.41074C2.44281 4.71266 2.41794 5.19394 2.68712 5.52537L3.58723 6.63362L3.03527 7.99156L1.47786 8.35515C1.10075 8.44319 0.833984 8.77941 0.833984 9.16666V10.8333C0.833984 11.2091 1.08547 11.5384 1.448 11.6373L3.05773 12.0764L3.62485 13.4218L2.71203 14.4454C2.41802 14.7751 2.43237 15.2769 2.74473 15.5893L4.4114 17.2559C4.71372 17.5582 5.1958 17.5827 5.52719 17.3126L6.63506 16.4095L7.95961 16.9543L8.35934 18.5374C8.45278 18.9074 8.78566 19.1667 9.16732 19.1667H10.834C11.2155 19.1667 11.5483 18.9076 11.6419 18.5378L12.0426 16.954L13.4115 16.3871C13.5492 16.5026 13.7072 16.6382 13.8645 16.7751C14.0207 16.9112 14.1659 17.0393 14.2721 17.1336C14.3252 17.1807 14.3684 17.2192 14.3983 17.2459L14.4435 17.2864C14.7731 17.582 15.2769 17.569 15.5899 17.2559L17.2566 15.5893C17.5633 15.2825 17.5834 14.7918 17.3029 14.461L16.3951 13.3906L16.9569 12.0338L18.5436 11.6215C18.9109 11.5261 19.1673 11.1945 19.1673 10.815V9.16666C19.1673 8.78556 18.9088 8.45302 18.5394 8.35906L16.9625 7.95787L16.4023 6.60445L17.3037 5.53796C17.5834 5.20708 17.5629 4.71709 17.2566 4.41074L15.5899 2.74408C15.2823 2.43648 14.7899 2.41723 14.4592 2.69987L13.4006 3.60473L11.9995 3.02866L11.5858 1.45481C11.4895 1.0886 11.1585 0.833332 10.7798 0.833332H9.15148ZM15.5353 14.9535L14.9652 15.5236L14.9589 15.5182C14.6512 15.2502 14.2547 14.9111 14.0311 14.7513C13.7971 14.584 13.4934 14.5492 13.2276 14.6593L11.0184 15.5743C10.7753 15.675 10.594 15.8846 10.5294 16.1397L10.1853 17.5H9.81638L9.47279 16.1393C9.40815 15.8833 9.22602 15.6731 8.98184 15.5727L6.81017 14.6793C6.52739 14.563 6.20361 14.6109 5.96661 14.8041L5.0576 15.5451L4.47975 14.9672L5.21927 14.138C5.43336 13.8979 5.49016 13.556 5.36521 13.2596L4.43604 11.0555C4.33663 10.8196 4.13437 10.6426 3.88747 10.5752L2.50065 10.1969V9.82786L3.83427 9.51651C4.09773 9.455 4.31494 9.26942 4.41681 9.01879L5.31681 6.80463C5.43128 6.52302 5.38332 6.20142 5.19168 5.96546L4.45458 5.05791L5.03405 4.47844L5.86674 5.21926C6.1068 5.43284 6.44827 5.48937 6.74436 5.36456L8.94852 4.43539C9.18676 4.33496 9.36489 4.12965 9.4307 3.87963L9.79385 2.5H10.1372L10.493 3.85352C10.5594 4.10617 10.7405 4.31306 10.9821 4.4124L13.2379 5.33989C13.5271 5.4588 13.8586 5.4058 14.0963 5.20263L14.9563 4.4675L15.5361 5.04734L14.8017 5.91621C14.6005 6.15431 14.5489 6.48484 14.6682 6.7729L15.5823 8.98124C15.6829 9.2241 15.8921 9.4053 16.1468 9.4701L17.5006 9.81453V10.1705L16.1361 10.5251C15.8831 10.5908 15.6757 10.7714 15.5757 11.0129L14.6607 13.2229C14.5412 13.5114 14.5931 13.8425 14.7951 14.0806L15.5353 14.9535Z" fill="#F3F3F3"/>
</g>
<defs>
<clipPath id="clip0_18_1475">
<rect width="20" height="20" fill="white"/>
</clipPath>
</defs>
</svg>
